<svg width="104" height="104" viewBox="0 0 104 104" fill="none" xmlns="http://www.w3.org/2000/svg">
<g clip-path="url(#clip0_1_5256)">
<path d="M93.1911 30.1164L96.5192 27.0631C98.8744 24.8995 100.755 22.2709 102.043 19.3434C103.331 16.4158 103.997 13.2531 104 10.0549C104 8.73415 103.74 7.42635 103.234 6.20619C102.729 4.98604 101.988 3.87743 101.054 2.9437C100.12 2.00997 99.0107 1.26941 97.7904 0.76432C96.57 0.259233 95.2621 -0.000484404 93.9414 3.49389e-06C90.7438 0.00336995 87.5817 0.669923 84.6548 1.95754C81.7279 3.24517 79.0999 5.12587 76.9369 7.48081L73.8836 10.8089L42.0289 0.189438C41.6504 0.0634265 41.2541 -0.000544729 40.8552 3.49389e-06H37.1408C36.1556 3.49389e-06 35.2109 0.391341 34.5143 1.08793C33.8177 1.78451 33.4264 2.72929 33.4264 3.71441V9.79488C25.5613 12.337 18.4807 16.8561 12.8629 22.9192C7.24509 28.9824 3.27829 36.3866 1.34249 44.4224C-0.593308 52.4582 -0.433256 60.8565 1.80732 68.8128C4.04789 76.769 8.29392 84.0166 14.1386 89.8614C19.9834 95.7061 27.231 99.9521 35.1872 102.193C43.1435 104.433 51.5418 104.593 59.5776 102.658C67.6134 100.722 75.0176 96.7549 81.0808 91.1371C87.1439 85.5193 91.663 78.4387 94.2051 70.5736H100.286C101.271 70.5736 102.215 70.1823 102.912 69.4857C103.609 68.7891 104 67.8444 104 66.8592V63.1448C104.001 62.7459 103.937 62.3496 103.811 61.9711L93.1911 30.1164ZM82.4156 12.499C83.8823 10.9025 85.6642 9.62762 87.6487 8.75492C89.6332 7.88223 91.7772 7.43067 93.9451 7.42881C94.2903 7.42881 94.6321 7.49686 94.9509 7.62906C95.2698 7.76127 95.5594 7.95503 95.8033 8.19928C96.0472 8.44353 96.2406 8.73347 96.3724 9.05251C96.5041 9.37155 96.5717 9.71343 96.5712 10.0586C96.5688 12.2259 96.117 14.3692 95.2443 16.353C94.3716 18.3368 93.097 20.1181 91.501 21.5844L53.2056 56.6929C52.8255 57.0406 52.522 57.4635 52.3141 57.9348C52.1063 58.406 51.9988 58.9154 51.9984 59.4304V75.5955C51.9963 76.1924 51.7729 76.7673 51.3714 77.2089C50.9699 77.6505 50.4188 77.9275 49.8248 77.9862C49.2309 78.0449 48.6362 77.8812 48.156 77.5267C47.6758 77.1722 47.3442 76.6522 47.2254 76.0672L44.4953 62.4168C44.3513 61.6983 43.998 61.0384 43.4798 60.5202C42.9616 60.002 42.3017 59.6487 41.5832 59.5047L27.9328 56.7746C27.3478 56.6558 26.8278 56.3242 26.4733 55.844C26.1188 55.3638 25.9551 54.7691 26.0138 54.1752C26.0725 53.5812 26.3495 53.0301 26.7911 52.6286C27.2327 52.2271 27.8076 52.0037 28.4045 52.0016H44.5696C45.0844 52.0017 45.5935 51.8947 46.0648 51.6876C46.536 51.4804 46.9591 51.1775 47.3071 50.7982L82.4156 12.499ZM40.8552 7.6331L68.3863 16.8077L60.1849 25.7557L40.8552 12.8667V7.6331ZM48.284 96.5745C38.6758 96.5719 29.3759 93.1834 22.0182 87.0043C14.6606 80.8251 9.71591 72.2507 8.05299 62.7876C6.39006 53.3244 8.11529 43.5779 12.9255 35.2606C17.7358 26.9433 25.3233 20.5872 34.355 17.3091C34.5675 17.5528 34.811 17.7676 35.0793 17.948L55.1036 31.2976L42.9352 44.5728H28.4045C25.9588 44.5655 23.5981 45.4697 21.783 47.1088C19.9679 48.748 18.8286 51.0046 18.5873 53.4383C18.3461 55.8721 19.0202 58.3084 20.4782 60.272C21.9362 62.2356 24.0735 63.5856 26.473 64.0586L37.6979 66.3021L39.9451 77.5233C40.4222 79.9186 41.7734 82.0508 43.7357 83.5049C45.6981 84.959 48.1313 85.6309 50.5618 85.39C52.9923 85.149 55.2462 84.0124 56.8849 82.2013C58.5235 80.3902 59.4298 78.0342 59.4272 75.5918V61.0648L72.7024 48.8964L86.052 68.917C86.2333 69.1869 86.4494 69.4316 86.6946 69.645C83.8365 77.5375 78.6155 84.3574 71.7423 89.1761C64.8692 93.9948 56.678 96.5782 48.284 96.5745ZM91.1296 63.1448L78.2443 43.8151L87.196 35.6137L96.3669 63.1448H91.1296Z" fill="#931158"/>
</g>
<defs>
<clipPath id="clip0_1_5256">
<rect width="104" height="104" fill="white"/>
</clipPath>
</defs>
</svg>
